<svg width="300" height="183" viewBox="0 0 300 183" fill="none" xmlns="http://www.w3.org/2000/svg">
<rect x="1.5" y="1.5" width="297" height="180" fill="#EEF1F4"/>
<path d="M157 82H143C141.895 82 141 82.8954 141 84V98C141 99.1046 141.895 100 143 100H157C158.105 100 159 99.1046 159 98V84C159 82.8954 158.105 82 157 82Z" stroke="#0A040B" stroke-width="2" stroke-linecap="round" stroke-linejoin="round"/>
<path d="M146.5 89C147.328 89 148 88.3284 148 87.5C148 86.6716 147.328 86 146.5 86C145.672 86 145 86.6716 145 87.5C145 88.3284 145.672 89 146.5 89Z" stroke="#0A040B" stroke-width="2" stroke-linecap="round" stroke-linejoin="round"/>
<path d="M159 94L154 89L143 100" stroke="#0A040B" stroke-width="2" stroke-linecap="round" stroke-linejoin="round"/>
<rect x="1.5" y="1.5" width="297" height="180" stroke="#0A040B" stroke-width="3"/>
</svg>
