<svg width="152" height="54" viewBox="0 0 152 54" fill="none" xmlns="http://www.w3.org/2000/svg">
<path d="M145.268 3.00712C143.992 3.30938 142.65 4.40098 141.98 5.69019C141.585 6.43964 141.558 6.5582 141.558 7.92609C141.558 9.26763 141.585 9.43852 141.94 10.162C142.44 11.1617 143.321 12.0429 144.32 12.5428C145.044 12.8846 145.228 12.9241 146.491 12.9241C147.793 12.9241 147.924 12.8978 148.753 12.4901C152.16 10.8196 152.594 6.09785 149.542 3.84878C148.424 3.02029 146.688 2.67813 145.268 3.00712Z" fill="#C05761"/>
<path d="M122.369 5.30843C118.659 5.8083 115.437 7.42613 113.675 9.6752C112.333 11.3852 111.676 13.1871 111.557 15.5544C111.281 20.6973 113.846 24.393 118.857 26.0635C121.238 26.8528 122.96 27.0896 126.236 27.1024C129.195 27.1024 130.642 26.9447 132.667 26.3925C136.56 25.34 139.349 22.8805 140.533 19.5003C140.861 18.5138 140.887 18.3034 140.901 16.2779C140.901 13.8447 140.756 13.0817 139.98 11.4639C139.007 9.45161 137.468 7.926 135.337 6.8871C133.549 5.99237 131.825 5.50603 129.524 5.22975C127.998 5.04568 123.947 5.08484 122.369 5.30843ZM127.906 6.68949C128.708 7.07116 129.682 8.20229 130.089 9.21485C130.773 10.9249 130.905 12.0428 130.905 16.212C130.891 19.6712 130.865 20.1448 130.602 21.2627C129.918 24.1826 128.642 25.6558 126.643 25.8399C124.657 26.024 123.092 24.8273 122.29 22.5124C121.185 19.3426 121.317 11.8192 122.526 9.04395C123.342 7.18936 124.868 6.18998 126.63 6.36087C127.025 6.4004 127.603 6.54494 127.906 6.68949Z" fill="#3C3C3C"/>
<path d="M90.6986 5.27423C86.9894 5.7741 83.767 7.39156 82.0046 9.641C80.6631 11.3507 80.0055 13.1526 79.8869 15.5202C79.6106 20.6628 82.1755 24.3588 87.1867 26.0289C89.5675 26.8183 91.2903 27.055 94.5655 27.0682C97.5245 27.0682 98.9714 26.9101 100.997 26.3579C104.89 25.3058 107.679 22.846 108.862 19.4658C109.191 18.4796 109.217 18.2692 109.231 16.2433C109.231 13.8102 109.086 13.0475 108.31 11.4297C107.336 9.41704 105.798 7.89143 103.667 6.85253C101.878 5.95817 100.155 5.47147 97.8535 5.19518C96.3279 5.01111 92.2769 5.05064 90.6986 5.27423ZM96.2357 6.65528C97.0382 7.03659 98.0112 8.16772 98.4192 9.18064C99.1032 10.8903 99.2346 12.0083 99.2346 16.1778C99.2214 19.6367 99.195 20.1102 98.9319 21.2281C98.248 24.1484 96.9723 25.6213 94.9732 25.8053C92.9869 25.9898 91.4217 24.7928 90.6196 22.4778C89.5148 19.3081 89.6462 11.7847 90.8563 9.00938C91.6717 7.1548 93.1976 6.15541 94.96 6.32631C95.3545 6.36583 95.933 6.51037 96.2357 6.65528Z" fill="#3C3C3C"/>
<path d="M113.872 26.721C112.228 27.0895 110.874 28.1942 110.321 29.6412C109.953 30.601 109.821 32.5478 110.058 33.6263C110.65 36.3225 112.715 38.2562 115.95 39.1242L117.226 39.4791L126.302 39.5713C135.324 39.6632 136.074 39.7027 137.666 40.1631C139.125 40.5839 140.23 41.3732 140.73 42.3726C141.348 43.5696 141.111 45.6346 140.204 47.0552C138.639 49.5015 134.772 51.5007 130.103 52.2636C128.051 52.6054 124.578 52.5791 122.553 52.2109C121.277 51.9742 118.147 51.093 117.963 50.9221C117.923 50.8826 118.107 50.6458 118.371 50.3695C119.489 49.2121 119.988 47.8573 119.896 46.3317C119.778 44.5167 118.646 42.8198 117.055 42.0835C116.397 41.7677 116.134 41.7282 114.99 41.7282C113.807 41.7282 113.596 41.7677 112.912 42.0967C111.82 42.6357 110.926 43.5696 110.36 44.7666C109.94 45.661 109.874 45.8977 109.874 46.8053C109.874 47.6865 109.94 47.9364 110.308 48.673C111.794 51.6979 116.858 53.6447 124.131 53.9733C128.367 54.1577 133.68 53.3684 136.692 52.1059C141.572 50.0409 143.979 46.0818 143.689 40.5444C143.413 35.06 140.783 31.6667 135.955 30.5355C135.101 30.3379 133.864 30.2988 126.17 30.2197C116.266 30.1275 116.397 30.1407 115.437 29.1808C114.688 28.431 114.648 27.8653 115.293 26.6291C115.359 26.4974 114.714 26.5369 113.872 26.721Z" fill="#3C3C3C"/>
<mask id="path-5-inside-1_1544_2466" fill="white">
<path d="M37.9664 0.394601C37.8932 0.65076 37.7469 2.26075 37.7103 3.98068L37.6005 7.09117L36.0635 7.20096C35.0023 7.27414 34.49 7.49371 34.49 7.85965C34.49 8.22559 34.9291 8.37197 36.1367 8.37197H37.7835V14.3002C37.7835 17.5937 37.9664 20.8871 38.1494 21.619C38.369 22.3509 39.1008 23.4487 39.8327 24.0708C40.894 25.0223 41.4063 25.2052 42.9066 25.2052C44.9925 25.2052 46.4197 24.7295 47.5541 23.6683C48.1762 23.0828 48.286 22.7534 47.9932 22.4241C47.6639 22.0216 47.3345 22.1313 46.2733 22.8266C44.3704 24.0708 43.236 24.2538 41.6624 23.5951C39.5766 22.7168 39.2472 21.5458 39.2472 14.41V8.37197H42.7237C45.5414 8.37197 46.2001 8.26218 46.2001 7.82305C46.2001 7.42052 45.5048 7.27414 42.8334 7.20096L39.4302 7.09117L39.2472 3.65133C39.1374 1.34605 38.9179 0.138443 38.6251 0.0286606C38.369 -0.0445276 38.0762 0.101849 37.9664 0.394601Z"/>
</mask>
<path d="M37.9664 0.394601L35.1574 -0.658769L35.115 -0.545687L35.0819 -0.429562L37.9664 0.394601ZM37.7103 3.98068L40.7084 4.08649L40.7091 4.0655L40.7096 4.04449L37.7103 3.98068ZM37.6005 7.09117L37.8142 10.0835L40.5035 9.89145L40.5986 7.19699L37.6005 7.09117ZM36.0635 7.20096L36.2699 10.1939L36.2773 10.1933L36.0635 7.20096ZM37.7835 8.37197H40.7835V5.37197H37.7835V8.37197ZM38.1494 21.619L35.239 22.3466L35.2559 22.4143L35.2759 22.4811L38.1494 21.619ZM39.8327 24.0708L41.8354 21.8371L41.8059 21.8107L41.7757 21.785L39.8327 24.0708ZM47.5541 23.6683L49.6036 25.8591L49.6102 25.8529L47.5541 23.6683ZM47.9932 22.4241L45.6713 24.3238L45.7102 24.3713L45.751 24.4172L47.9932 22.4241ZM46.2733 22.8266L47.915 25.3375L47.9174 25.336L46.2733 22.8266ZM41.6624 23.5951L40.4983 26.36L40.504 26.3624L41.6624 23.5951ZM39.2472 8.37197V5.37197H36.2472V8.37197H39.2472ZM42.8334 7.20096L42.7367 10.1994L42.744 10.1996L42.7513 10.1998L42.8334 7.20096ZM39.4302 7.09117L36.4344 7.25052L36.5807 10.0008L39.3335 10.0896L39.4302 7.09117ZM39.2472 3.65133L36.2506 3.79403L36.251 3.80236L36.2515 3.81068L39.2472 3.65133ZM38.6251 0.0286606L39.6785 -2.78033L39.5654 -2.82273L39.4493 -2.85591L38.6251 0.0286606ZM35.0819 -0.429562C34.9833 -0.0845547 34.9384 0.321148 34.9203 0.478446C34.8903 0.739603 34.8607 1.05737 34.8336 1.40702C34.7793 2.10794 34.7305 2.99656 34.711 3.91686L40.7096 4.04449C40.7266 3.24487 40.7693 2.46853 40.8157 1.87044C40.8389 1.57057 40.8619 1.33032 40.881 1.16381C40.8907 1.07938 40.8977 1.02958 40.9009 1.00855C40.9102 0.948077 40.8976 1.05563 40.851 1.21877L35.0819 -0.429562ZM34.7121 3.87486L34.6024 6.98535L40.5986 7.19699L40.7084 4.08649L34.7121 3.87486ZM37.3867 4.0988L35.8498 4.20858L36.2773 10.1933L37.8142 10.0835L37.3867 4.0988ZM35.8571 4.20806C35.2309 4.25126 34.4393 4.3505 33.7146 4.65561C33.0088 4.9528 31.49 5.88128 31.49 7.85965H37.49C37.49 8.54483 37.224 9.15815 36.8356 9.59809C36.5001 9.97811 36.1586 10.1368 36.043 10.1854C35.8398 10.271 35.835 10.2238 36.2699 10.1938L35.8571 4.20806ZM31.49 7.85965C31.49 8.61868 31.7455 9.4476 32.3708 10.1265C32.92 10.7227 33.5587 10.988 33.9571 11.1138C34.6989 11.348 35.5223 11.372 36.1367 11.372V5.37197C35.8872 5.37197 35.7324 5.36406 35.6452 5.35603C35.5432 5.34663 35.6098 5.34361 35.7639 5.39229C35.9015 5.43575 36.355 5.59582 36.7841 6.06165C37.2893 6.61019 37.49 7.28358 37.49 7.85965H31.49ZM36.1367 11.372H37.7835V5.37197H36.1367V11.372ZM34.7835 8.37197V14.3002H40.7835V8.37197H34.7835ZM34.7835 14.3002C34.7835 15.9974 34.8305 17.6959 34.9018 19.0752C34.9655 20.3054 35.0618 21.6378 35.239 22.3466L41.0598 20.8914C41.077 20.9601 41.0466 20.8319 41.0023 20.3532C40.9643 19.9434 40.9268 19.4033 40.8938 18.7652C40.8279 17.4915 40.7835 15.8965 40.7835 14.3002H34.7835ZM35.2759 22.4811C35.506 23.2481 35.9214 23.9898 36.3186 24.5737C36.7292 25.1772 37.2679 25.828 37.8898 26.3566L41.7757 21.785C41.6657 21.6915 41.4725 21.4824 41.2792 21.1985C41.1896 21.0668 41.1189 20.9464 41.0697 20.8507C41.0161 20.7466 41.0104 20.7154 41.0229 20.757L35.2759 22.4811ZM37.8301 26.3045C38.4397 26.8511 39.1765 27.4457 40.1706 27.8108C41.1411 28.1674 42.0902 28.2052 42.9066 28.2052V22.2052C42.2227 22.2052 42.1654 22.1516 42.2395 22.1788C42.337 22.2147 42.287 22.242 41.8354 21.8371L37.8301 26.3045ZM42.9066 28.2052C45.4953 28.2052 47.7498 27.5933 49.6036 25.8591L45.5046 21.4775C45.0895 21.8658 44.4897 22.2052 42.9066 22.2052V28.2052ZM49.6102 25.8529C49.9478 25.5352 50.6212 24.8789 50.9493 23.9383C51.1469 23.3717 51.2273 22.6872 51.0494 21.9611C50.8796 21.2682 50.5292 20.7615 50.2354 20.431L45.751 24.4172C45.6036 24.2513 45.3493 23.9093 45.2218 23.3891C45.0862 22.8357 45.1551 22.3318 45.2841 21.962C45.3974 21.6372 45.5438 21.4496 45.5693 21.4172C45.6015 21.3764 45.5932 21.3941 45.498 21.4837L49.6102 25.8529ZM50.3151 20.5244C50.051 20.2016 49.566 19.7045 48.7956 19.4132C47.9845 19.1066 47.2293 19.1659 46.6801 19.3033C45.8388 19.5136 45.0551 20.0382 44.6292 20.3172L47.9174 25.336C48.1665 25.1728 48.3076 25.0873 48.3879 25.0431C48.4878 24.9883 48.3758 25.064 48.1353 25.1241C47.8422 25.1974 47.2975 25.2613 46.6739 25.0256C46.091 24.8052 45.7707 24.4453 45.6713 24.3238L50.3151 20.5244ZM44.6315 20.3157C43.8098 20.853 43.4645 20.9465 43.3542 20.9648C43.3433 20.9666 43.2486 21.0068 42.8208 20.8278L40.504 26.3624C41.6498 26.8421 42.9091 27.1202 44.3345 26.8841C45.6605 26.6646 46.8339 26.0444 47.915 25.3375L44.6315 20.3157ZM42.8266 20.8302C42.4806 20.6845 42.5041 20.6458 42.5906 20.7378C42.6978 20.8517 42.655 20.8919 42.5725 20.5806C42.3503 19.742 42.2472 18.0969 42.2472 14.41H36.2472C36.2472 17.8589 36.3088 20.3673 36.7727 22.1177C37.0333 23.1009 37.464 24.0445 38.2195 24.848C38.9545 25.6296 39.8014 26.0666 40.4983 26.36L42.8266 20.8302ZM42.2472 14.41V8.37197H36.2472V14.41H42.2472ZM39.2472 11.372H42.7237V5.37197H39.2472V11.372ZM42.7237 11.372C44.0802 11.372 45.1961 11.3514 45.9905 11.2248C46.3492 11.1677 47.0675 11.0329 47.7419 10.5736C48.1305 10.309 48.5358 9.91627 48.8255 9.36143C49.1147 8.80774 49.2001 8.26243 49.2001 7.82305H43.2001C43.2001 7.49345 43.2649 7.04764 43.5071 6.58401C43.7498 6.11922 44.0816 5.80716 44.3644 5.61455C44.6266 5.43596 44.8481 5.35792 44.9384 5.32938C45.0349 5.29885 45.082 5.2939 45.0466 5.29953C44.9666 5.31228 44.7613 5.3344 44.3433 5.35005C43.9409 5.36512 43.4149 5.37197 42.7237 5.37197V11.372ZM49.2001 7.82305C49.2001 6.60712 48.5576 5.63419 47.7169 5.07223C47.0928 4.65503 46.4329 4.50826 46.0762 4.44079C45.2962 4.29323 44.219 4.23779 42.9156 4.20208L42.7513 10.1998C43.4008 10.2176 43.8989 10.2391 44.2807 10.2654C44.6759 10.2925 44.8777 10.3205 44.9609 10.3362C44.9984 10.3433 44.9629 10.3391 44.8822 10.3119C44.8081 10.2869 44.6159 10.2164 44.3825 10.0604C44.1369 9.89624 43.8105 9.61289 43.5563 9.16511C43.2933 8.70203 43.2001 8.22603 43.2001 7.82305H49.2001ZM42.9302 4.20252L39.5269 4.09273L39.3335 10.0896L42.7367 10.1994L42.9302 4.20252ZM42.426 6.93182L42.243 3.49198L36.2515 3.81068L36.4344 7.25052L42.426 6.93182ZM42.2438 3.50862C42.1869 2.31286 42.0974 1.28905 41.9603 0.5017C41.8942 0.12273 41.7958 -0.330982 41.6297 -0.762066C41.547 -0.976439 41.4072 -1.29336 41.1743 -1.62002C40.9581 -1.92333 40.4911 -2.47561 39.6785 -2.78033L37.5718 2.83765C36.8324 2.56037 36.4362 2.06985 36.2885 1.8626C36.1241 1.632 36.0503 1.44544 36.0311 1.39574C35.9919 1.294 36.0101 1.30685 36.0493 1.53166C36.1225 1.95189 36.1978 2.68451 36.2506 3.79403L42.2438 3.50862ZM39.4493 -2.85591C37.5503 -3.39847 35.7637 -2.27534 35.1574 -0.658769L40.7754 1.44797C40.3888 2.47903 39.1876 3.30941 37.801 2.91323L39.4493 -2.85591Z" fill="#3C3C3C" mask="url(#path-5-inside-1_1544_2466)"/>
<mask id="path-7-inside-2_1544_2466" fill="white">
<path d="M70.2425 0.175089C69.5106 0.906971 70.0595 1.41929 71.6331 1.41929H73.2798V12.5807V23.7419H71.6331C70.3889 23.7419 69.9864 23.8882 69.9864 24.2908C69.9864 24.7665 70.6085 24.8397 74.0117 24.7665C78.0736 24.6567 79.757 24.0346 76.5001 23.8151L74.7436 23.7053L74.6704 11.922L74.5606 0.138495L72.5479 0.028712C71.4135 -0.0444762 70.3889 0.0287125 70.2425 0.175089Z"/>
</mask>
<path d="M73.2798 1.41929H76.2798V-1.58071H73.2798V1.41929ZM73.2798 23.7419V26.7419H76.2798V23.7419H73.2798ZM74.0117 24.7665L74.0762 27.7658L74.0845 27.7656L74.0928 27.7654L74.0117 24.7665ZM76.5001 23.8151L76.7019 20.8218L76.6946 20.8214L76.6872 20.8209L76.5001 23.8151ZM74.7436 23.7053L71.7436 23.7239L71.761 26.5247L74.5565 26.6994L74.7436 23.7053ZM74.6704 11.922L77.6704 11.9033L77.6703 11.894L74.6704 11.922ZM74.5606 0.138495L77.5605 0.110548L77.5343 -2.70376L74.724 -2.85705L74.5606 0.138495ZM72.5479 0.028712L72.3548 3.02249L72.3697 3.02345L72.3845 3.02426L72.5479 0.028712ZM68.1212 -1.94623C67.7451 -1.57012 67.158 -0.868785 66.9762 0.152427C66.7511 1.41665 67.2477 2.56011 68.0594 3.29525C68.7256 3.89862 69.4906 4.14087 69.9834 4.25301C70.5285 4.37706 71.0945 4.41929 71.6331 4.41929V-1.58071C71.3849 -1.58071 71.2923 -1.60252 71.3147 -1.59741C71.3298 -1.59398 71.4099 -1.57509 71.5308 -1.52116C71.6479 -1.46892 71.858 -1.35949 72.0871 -1.15196C72.3254 -0.936166 72.5935 -0.6041 72.7629 -0.141465C72.9361 0.331241 72.955 0.801486 72.8833 1.20409C72.7552 1.9234 72.374 2.28624 72.3638 2.29641L68.1212 -1.94623ZM71.6331 4.41929H73.2798V-1.58071H71.6331V4.41929ZM70.2798 1.41929V12.5807H76.2798V1.41929H70.2798ZM70.2798 12.5807V23.7419H76.2798V12.5807H70.2798ZM73.2798 20.7419H71.6331V26.7419H73.2798V20.7419ZM71.6331 20.7419C71.0254 20.7419 70.1568 20.7606 69.3793 21.0244C68.9391 21.1738 68.2783 21.4818 67.7409 22.1427C67.1592 22.8583 66.9864 23.6579 66.9864 24.2908H72.9864C72.9864 24.7223 72.8639 25.3528 72.3965 25.9277C71.9735 26.448 71.491 26.6439 71.307 26.7063C71.123 26.7687 71.0313 26.7673 71.1319 26.7578C71.2152 26.75 71.371 26.7419 71.6331 26.7419V20.7419ZM66.9864 24.2908C66.9864 24.6747 67.0494 25.2174 67.3356 25.7908C67.6314 26.3833 68.0645 26.8067 68.4995 27.09C69.2292 27.5652 70.0115 27.6713 70.3709 27.7138C71.2045 27.8122 72.4455 27.8009 74.0762 27.7658L73.9472 21.7672C73.1026 21.7854 72.4611 21.7937 71.9694 21.79C71.4601 21.7862 71.1966 21.7696 71.0747 21.7552C71.0182 21.7485 71.0567 21.7494 71.1513 21.7752C71.2375 21.7987 71.4823 21.8723 71.774 22.0622C72.0974 22.2729 72.4554 22.6131 72.7038 23.1108C72.9428 23.5894 72.9864 24.0258 72.9864 24.2908H66.9864ZM74.0928 27.7654C75.1732 27.7362 76.1286 27.6723 76.9114 27.5832C77.6022 27.5045 78.419 27.3804 79.0592 27.1389C79.2329 27.0734 79.536 26.9478 79.8551 26.7278C80.081 26.5721 80.8845 25.99 81.1424 24.8398C81.4692 23.3816 80.6878 22.3331 80.2038 21.8925C79.7702 21.4977 79.3214 21.3131 79.1321 21.2403C78.4131 20.9642 77.4692 20.8736 76.7019 20.8218L76.2983 26.8083C77.1594 26.8663 77.2264 26.9358 76.9809 26.8415C76.9099 26.8142 76.5459 26.6764 76.1647 26.3293C75.7332 25.9365 74.9718 24.9366 75.2877 23.5275C75.5345 22.4263 76.2959 21.8938 76.4499 21.7877C76.6971 21.6173 76.8984 21.5413 76.9417 21.525C77.0604 21.4802 76.8984 21.5459 76.2329 21.6216C75.6594 21.6869 74.8812 21.7419 73.9307 21.7676L74.0928 27.7654ZM76.6872 20.8209L74.9307 20.7111L74.5565 26.6994L76.313 26.8092L76.6872 20.8209ZM77.7435 23.6866L77.6703 11.9033L71.6705 11.9406L71.7436 23.7239L77.7435 23.6866ZM77.6703 11.894L77.5605 0.110548L71.5607 0.166443L71.6705 11.9499L77.6703 11.894ZM74.724 -2.85705L72.7113 -2.96684L72.3845 3.02426L74.3972 3.13404L74.724 -2.85705ZM72.7411 -2.96506C72.0652 -3.00867 71.3934 -3.01126 70.8273 -2.97394C70.5522 -2.95579 70.236 -2.92411 69.9287 -2.86395C69.7785 -2.83457 69.5621 -2.7854 69.3243 -2.70011C69.1703 -2.64488 68.6217 -2.44677 68.1212 -1.94623L72.3638 2.29641C72.1018 2.55847 71.8488 2.71071 71.7074 2.7872C71.5546 2.86988 71.4268 2.92006 71.3498 2.94765C71.2005 3.00121 71.097 3.02121 71.0813 3.0243C71.0427 3.03185 71.081 3.02237 71.2221 3.01306C71.4886 2.99549 71.8963 2.9929 72.3548 3.02249L72.7411 -2.96506Z" fill="#3C3C3C" mask="url(#path-7-inside-2_1544_2466)"/>
<mask id="path-9-inside-3_1544_2466" fill="white">
<path d="M4.66575 7.42077C3.16539 8.07946 1.37228 10.0921 0.603802 11.8487C-0.201267 13.8247 -0.201267 18.3258 0.603802 20.2653C2.03097 23.5954 4.59256 25.2055 8.61791 25.2055C10.8867 25.2055 11.6918 25.0225 13.2654 24.2174C15.461 23.0464 16.2295 22.1682 15.5708 21.5095C15.278 21.2167 14.7657 21.3997 13.6313 22.2414C11.6552 23.6685 8.72769 24.2906 6.64182 23.7417C4.44618 23.1562 3.49473 22.4243 2.36032 20.4849C1.04293 18.2526 0.969744 14.1541 2.21394 11.7755C3.97046 8.4088 7.66646 7.2012 11.0697 8.95772C12.5701 9.6896 14.29 11.7755 14.4364 12.9465C14.5096 13.6418 14.7657 14.0443 15.0951 14.0443C15.5342 14.0443 15.644 13.4222 15.644 10.7508C15.644 7.93308 15.5708 7.45736 15.0219 7.34758C14.5096 7.2378 14.3632 7.45736 14.3632 8.33562V9.43344L12.2773 8.15265C10.5208 7.09142 9.86211 6.90845 7.99581 6.90845C6.75161 6.94504 5.28784 7.16461 4.66575 7.42077Z"/>
</mask>
<path d="M4.66575 7.42077L3.5235 4.64673L3.49148 4.65991L3.45978 4.67383L4.66575 7.42077ZM0.603802 11.8487L-2.14467 10.6462L-2.16002 10.6813L-2.17447 10.7168L0.603802 11.8487ZM0.603802 20.2653L-2.16697 21.4154L-2.16039 21.4313L-2.15363 21.4471L0.603802 20.2653ZM13.2654 24.2174L14.6318 26.8882L14.6546 26.8765L14.6771 26.8645L13.2654 24.2174ZM13.6313 22.2414L15.3878 24.6734L15.4034 24.6621L15.4188 24.6507L13.6313 22.2414ZM6.64182 23.7417L5.86883 26.6404L5.87834 26.643L6.64182 23.7417ZM2.36032 20.4849L4.9499 18.9702L4.94394 18.9601L2.36032 20.4849ZM2.21394 11.7755L4.87224 13.166L4.8737 13.1632L2.21394 11.7755ZM11.0697 8.95772L9.69378 11.6236L9.72394 11.6391L9.75444 11.654L11.0697 8.95772ZM14.4364 12.9465L17.4199 12.6324L17.4168 12.6034L17.4132 12.5744L14.4364 12.9465ZM15.0219 7.34758L14.3933 10.281L14.4134 10.2853L14.4335 10.2893L15.0219 7.34758ZM14.3632 9.43344L12.7934 11.99L17.3632 14.796V9.43344H14.3632ZM12.2773 8.15265L13.8471 5.59613L13.8379 5.59048L13.8287 5.5849L12.2773 8.15265ZM7.99581 6.90845V3.90845H7.9517L7.90761 3.90974L7.99581 6.90845ZM3.45978 4.67383C2.17376 5.23842 1.01878 6.2389 0.140497 7.20501C-0.763714 8.19964 -1.60436 9.41119 -2.14467 10.6462L3.35227 13.0511C3.58044 12.5296 4.02059 11.8565 4.58014 11.241C5.16562 10.597 5.65737 10.2618 5.87172 10.1677L3.45978 4.67383ZM-2.17447 10.7168C-2.79772 12.2466 -3 14.3312 -3 16.0707C-3 17.8045 -2.79929 19.8921 -2.16697 21.4154L3.37458 19.1152C3.20183 18.699 3 17.5663 3 16.0707C3 14.5808 3.20026 13.4268 3.38208 12.9805L-2.17447 10.7168ZM-2.15363 21.4471C-1.24503 23.5671 0.116769 25.3329 2.05687 26.5346C3.97562 27.723 6.21099 28.2055 8.61791 28.2055V22.2055C6.99947 22.2055 5.94137 21.8829 5.21621 21.4337C4.51238 20.9978 3.87981 20.2935 3.36124 19.0835L-2.15363 21.4471ZM8.61791 28.2055C9.80037 28.2055 10.8289 28.162 11.8323 27.9465C12.8798 27.7215 13.7397 27.3446 14.6318 26.8882L11.8989 21.5467C11.2175 21.8954 10.8881 22.0125 10.5724 22.0803C10.2127 22.1575 9.70428 22.2055 8.61791 22.2055V28.2055ZM14.6771 26.8645C15.8109 26.2598 16.9898 25.5296 17.7662 24.6237C18.1684 24.1546 18.712 23.3524 18.7897 22.2583C18.8776 21.0203 18.3337 20.0298 17.6921 19.3882L13.4495 23.6308C13.1372 23.3185 12.7443 22.6848 12.8047 21.8333C12.855 21.1258 13.1928 20.7399 13.2107 20.719C13.249 20.6742 13.1943 20.7476 12.9333 20.9288C12.6885 21.0988 12.3367 21.3127 11.8536 21.5704L14.6771 26.8645ZM17.6921 19.3882C17.1506 18.8466 16.4292 18.4809 15.607 18.3973C14.8761 18.3231 14.2629 18.4919 13.8679 18.6393C13.1293 18.9149 12.4229 19.4024 11.8438 19.8321L15.4188 24.6507C15.6635 24.4692 15.8337 24.3539 15.9475 24.2836C16.0715 24.2071 16.0659 24.2232 15.9654 24.2607C15.8769 24.2938 15.5176 24.4192 15.0005 24.3666C14.3922 24.3048 13.8446 24.026 13.4495 23.6308L17.6921 19.3882ZM11.8748 19.8093C10.5276 20.7823 8.51205 21.1318 7.4053 20.8405L5.87834 26.643C8.94332 27.4495 12.7828 26.5547 15.3878 24.6734L11.8748 19.8093ZM7.41481 20.843C6.49945 20.5989 6.13547 20.398 5.92174 20.2351C5.70845 20.0725 5.42277 19.7787 4.94988 18.9702L-0.229246 21.9995C0.432279 23.1305 1.18953 24.1723 2.28447 25.0069C3.37899 25.8412 4.58855 26.299 5.86884 26.6404L7.41481 20.843ZM4.94394 18.9601C4.63461 18.4359 4.34807 17.4153 4.32609 16.1336C4.30427 14.8606 4.55171 13.7787 4.87224 13.166L-0.444352 10.385C-1.36802 12.1508 -1.70609 14.3075 -1.67302 16.2365C-1.6401 18.1568 -1.23136 20.3015 -0.223305 22.0096L4.94394 18.9601ZM4.8737 13.1632C5.87566 11.2427 7.77635 10.6339 9.69378 11.6236L12.4456 6.29185C7.55657 3.76846 2.06526 5.57488 -0.445812 10.3878L4.8737 13.1632ZM9.75444 11.654C9.99783 11.7727 10.4859 12.1464 10.9607 12.7134C11.1788 12.974 11.3378 13.2093 11.4335 13.3825C11.5518 13.5968 11.4901 13.5629 11.4595 13.3186L17.4132 12.5744C17.3095 11.7445 16.9779 11.0108 16.6856 10.4817C16.3708 9.91167 15.9786 9.3602 15.5609 8.86142C14.7641 7.90981 13.6419 6.87456 12.385 6.26141L9.75444 11.654ZM11.4528 13.2605C11.5158 13.8586 11.6797 14.615 12.1083 15.3179C12.5476 16.0385 13.5221 17.0443 15.0951 17.0443V11.0443C16.3387 11.0443 17.0204 11.8489 17.231 12.1943C17.4309 12.5221 17.4301 12.7296 17.4199 12.6324L11.4528 13.2605ZM15.0951 17.0443C16.1021 17.0443 17.1265 16.5947 17.8007 15.6583C18.2884 14.9809 18.4326 14.2539 18.4926 13.897C18.6241 13.1152 18.644 12.0313 18.644 10.7508H12.644C12.644 11.4047 12.6371 11.8986 12.6223 12.2739C12.6068 12.6656 12.5853 12.8448 12.5758 12.9016C12.5718 12.9249 12.5799 12.8649 12.6164 12.7557C12.6512 12.6516 12.7389 12.4199 12.9315 12.1524C13.1395 11.8635 13.4608 11.5474 13.9168 11.3223C14.3662 11.1004 14.7898 11.0443 15.0951 11.0443V17.0443ZM18.644 10.7508C18.644 9.44584 18.6365 8.31223 18.4917 7.50442C18.4162 7.0834 18.2406 6.33288 17.6845 5.64439C17.0233 4.82582 16.1863 4.52105 15.6102 4.40584L14.4335 10.2893C14.3105 10.2647 14.0737 10.2054 13.797 10.0582C13.5014 9.90087 13.2329 9.68197 13.0168 9.41442C12.8127 9.16173 12.7053 8.92762 12.6515 8.78464C12.6244 8.71244 12.6081 8.65576 12.599 8.62071C12.5899 8.58552 12.5862 8.56487 12.5858 8.56302C12.5855 8.56093 12.5874 8.57166 12.5907 8.59824C12.5939 8.62461 12.5979 8.66233 12.6022 8.71362C12.6109 8.8182 12.6191 8.95972 12.6258 9.15036C12.6393 9.53675 12.644 10.05 12.644 10.7508H18.644ZM15.6505 4.41417C15.3517 4.35016 14.7559 4.24872 14.0582 4.40221C13.2168 4.58732 12.486 5.08438 12.0043 5.80698C11.6032 6.40864 11.4789 7.01205 11.4284 7.34269C11.3733 7.70396 11.3632 8.05579 11.3632 8.33562H17.3632C17.3632 8.17631 17.3714 8.17135 17.3597 8.24788C17.3527 8.29376 17.297 8.68448 16.9966 9.13519C16.6155 9.70684 16.0173 10.1147 15.3474 10.2621C14.8213 10.3778 14.4359 10.2901 14.3933 10.281L15.6505 4.41417ZM11.3632 8.33562V9.43344H17.3632V8.33562H11.3632ZM15.933 6.87693L13.8471 5.59613L10.7075 10.7092L12.7934 11.99L15.933 6.87693ZM13.8287 5.5849C12.9083 5.02886 12.0253 4.54364 11.0104 4.25044C9.97543 3.95147 9.00017 3.90845 7.99581 3.90845V9.90845C8.85775 9.90845 9.14498 9.95691 9.34511 10.0147C9.56525 10.0783 9.88979 10.2152 10.726 10.7204L13.8287 5.5849ZM7.90761 3.90974C7.15691 3.93182 6.35807 4.00772 5.64472 4.11663C4.99999 4.21507 4.18256 4.37535 3.5235 4.64673L5.80799 10.1948C5.75299 10.2175 5.7872 10.1987 5.95762 10.1588C6.1089 10.1233 6.30966 10.0846 6.55026 10.0479C7.03537 9.97384 7.59051 9.92167 8.08401 9.90715L7.90761 3.90974Z" fill="#3C3C3C" mask="url(#path-9-inside-3_1544_2466)"/>
<mask id="path-11-inside-4_1544_2466" fill="white">
<path d="M22.1578 7.82318C20.4013 8.62825 19.8158 9.32354 20.4379 9.94564C20.5842 10.0554 21.5357 9.72608 22.5603 9.21376C25.2683 7.82318 28.3788 7.82318 30.1719 9.17717C31.5625 10.2384 32.4407 12.1413 32.2212 13.5685C32.1114 14.3735 31.965 14.4101 27.5371 14.5931C23.8411 14.7395 22.7067 14.9224 21.7187 15.5079C19.7792 16.6424 18.9375 18.0329 18.9375 20.0822C18.9375 23.3391 21.2063 25.2054 25.2683 25.2054C27.8299 25.2054 29.257 24.6565 31.1233 22.8999L32.2943 21.7655V23.3025V24.8394H34.673C36.5027 24.8394 37.0516 24.7297 37.0516 24.3271C37.0516 23.9246 36.5393 23.7416 35.3317 23.6684L33.5751 23.5586L33.3922 16.9717C33.2458 11.2996 33.0994 10.2384 32.5139 9.36014C30.794 6.79855 25.8538 6.06667 22.1578 7.82318ZM32.2212 17.484C32.5139 21.6557 26.7686 25.2054 22.5603 23.4489C20.511 22.5706 19.5596 19.7163 20.8038 17.9597C21.9748 16.2764 24.0607 15.7275 29.0009 15.8373L32.1114 15.8739L32.2212 17.484Z"/>
</mask>
<path d="M22.1578 7.82318L23.4077 10.5504L23.4267 10.5417L23.4455 10.5328L22.1578 7.82318ZM20.4379 9.94564L18.3165 12.067L18.4673 12.2177L18.6379 12.3456L20.4379 9.94564ZM22.5603 9.21376L23.902 11.897L23.9164 11.8898L23.9307 11.8825L22.5603 9.21376ZM30.1719 9.17717L31.9919 6.79231L31.9858 6.78766L31.9797 6.78304L30.1719 9.17717ZM32.2212 13.5685L29.256 13.1123L29.2521 13.1377L29.2487 13.1631L32.2212 13.5685ZM27.5371 14.5931L27.6558 17.5907L27.661 17.5905L27.5371 14.5931ZM21.7187 15.5079L23.2333 18.0975L23.2407 18.0932L23.2481 18.0888L21.7187 15.5079ZM31.1233 22.8999L33.1794 25.0845L33.1952 25.0697L33.2107 25.0547L31.1233 22.8999ZM32.2943 21.7655H35.2943V14.6824L30.207 19.6108L32.2943 21.7655ZM32.2943 24.8394H29.2943V27.8394H32.2943V24.8394ZM35.3317 23.6684L35.1445 26.6626L35.1502 26.6629L35.3317 23.6684ZM33.5751 23.5586L30.5763 23.6419L30.6524 26.3818L33.388 26.5528L33.5751 23.5586ZM33.3922 16.9717L30.3932 17.0491L30.3933 17.055L33.3922 16.9717ZM32.5139 9.36014L35.0101 7.69603L35.0046 7.68783L32.5139 9.36014ZM32.2212 17.484L29.2281 17.6881L29.2285 17.694L32.2212 17.484ZM22.5603 23.4489L21.3786 26.2063L21.3916 26.2119L21.4048 26.2174L22.5603 23.4489ZM20.8038 17.9597L23.2519 19.6938L23.2592 19.6834L23.2665 19.6729L20.8038 17.9597ZM29.0009 15.8373L28.9342 18.8365L28.9499 18.8369L28.9656 18.8371L29.0009 15.8373ZM32.1114 15.8739L35.1044 15.6698L34.916 12.9067L32.1467 12.8741L32.1114 15.8739ZM20.9078 5.09599C19.9909 5.51625 18.8426 6.12614 18.084 7.05331C17.657 7.57511 17.1635 8.43216 17.1986 9.55815C17.2344 10.7091 17.8027 11.5531 18.3165 12.067L22.5592 7.82432C22.762 8.02714 23.1701 8.55096 23.1957 9.37139C23.2205 10.1669 22.8665 10.6832 22.7277 10.8527C22.5962 11.0135 22.5295 11.0292 22.6846 10.9294C22.8197 10.8423 23.0502 10.7143 23.4077 10.5504L20.9078 5.09599ZM18.6379 12.3456C19.4564 12.9596 20.3135 12.9644 20.4933 12.9665C20.8102 12.9703 21.0775 12.9285 21.2368 12.8989C21.5706 12.8367 21.8929 12.7371 22.1488 12.6487C22.6847 12.4637 23.3016 12.1972 23.902 11.897L21.2187 6.53048C20.7944 6.74261 20.4233 6.89693 20.1907 6.97723C20.0623 7.02156 20.0553 7.01575 20.1375 7.00042C20.171 6.99418 20.332 6.96417 20.5648 6.96694C20.6845 6.96836 20.8908 6.97882 21.144 7.03679C21.3851 7.09198 21.8048 7.22081 22.2379 7.54564L18.6379 12.3456ZM23.9307 11.8825C26.0171 10.8111 27.803 11.1476 28.3641 11.5713L31.9797 6.78304C28.9545 4.49872 24.5194 4.8353 21.1899 6.54506L23.9307 11.8825ZM28.3519 11.562C28.6224 11.7685 28.8977 12.1086 29.0802 12.5008C29.2746 12.9187 29.2512 13.1439 29.256 13.1123L35.1863 14.0246C35.4107 12.5658 35.058 11.126 34.5205 9.97039C33.971 8.78906 33.112 7.64709 31.9919 6.79231L28.3519 11.562ZM29.2487 13.1631C29.2363 13.2541 29.2459 13.1452 29.2928 12.9864C29.3507 12.7905 29.4774 12.4664 29.7492 12.1361C30.0229 11.8035 30.3258 11.6077 30.5454 11.5008C30.6486 11.4505 30.731 11.421 30.7798 11.4053C30.805 11.3971 30.8242 11.3917 30.8362 11.3885C30.8424 11.3869 30.847 11.3858 30.85 11.385C30.8531 11.3843 30.8546 11.384 30.8547 11.3839C30.8547 11.3839 30.8534 11.3842 30.8506 11.3848C30.8477 11.3854 30.8436 11.3862 30.8381 11.3872C30.8268 11.3892 30.8107 11.392 30.7892 11.3953C30.7454 11.4021 30.6851 11.4102 30.6043 11.4192C30.4399 11.4375 30.2206 11.4561 29.9258 11.4754C29.3304 11.5144 28.5287 11.5496 27.4132 11.5956L27.661 17.5905C29.7033 17.5061 31.2087 17.4493 32.1422 17.2442C32.6481 17.133 33.6341 16.8576 34.3821 15.9488C35.0907 15.0877 35.1764 14.1004 35.1936 13.9738L29.2487 13.1631ZM27.4184 11.5954C23.901 11.7347 21.9485 11.8846 20.1892 12.9271L23.2481 18.0888C23.4649 17.9603 23.7812 17.7442 27.6558 17.5907L27.4184 11.5954ZM20.204 12.9184C18.9408 13.6573 17.8195 14.6058 17.0367 15.8947C16.2421 17.2029 15.9375 18.6287 15.9375 20.0822H21.9375C21.9375 19.4864 22.0538 19.1923 22.1649 19.0094C22.2878 18.807 22.5571 18.493 23.2333 18.0975L20.204 12.9184ZM15.9375 20.0822C15.9375 22.4638 16.803 24.6615 18.6875 26.1932C20.4801 27.6501 22.8278 28.2054 25.2683 28.2054V22.2054C23.6469 22.2054 22.8291 21.8275 22.4718 21.5371C22.2064 21.3214 21.9375 20.9574 21.9375 20.0822H15.9375ZM25.2683 28.2054C26.758 28.2054 28.1655 28.0477 29.5513 27.5045C30.9407 26.9599 32.0832 26.1163 33.1794 25.0845L29.0672 20.7153C28.2972 21.4401 27.7929 21.7492 27.3618 21.9183C26.927 22.0886 26.3402 22.2054 25.2683 22.2054V28.2054ZM33.2107 25.0547L34.3817 23.9202L30.207 19.6108L29.0359 20.7452L33.2107 25.0547ZM29.2943 21.7655V23.3025H35.2943V21.7655H29.2943ZM29.2943 23.3025V24.8394H35.2943V23.3025H29.2943ZM32.2943 27.8394H34.673V21.8394H32.2943V27.8394ZM34.673 27.8394C35.5423 27.8394 36.4491 27.8223 37.172 27.6687C37.5247 27.5938 38.2214 27.4135 38.861 26.8789C39.6782 26.196 40.0516 25.2422 40.0516 24.3271H34.0516C34.0516 24.0312 34.1036 23.6472 34.2861 23.2393C34.4717 22.8246 34.7391 22.5043 35.0134 22.275C35.2721 22.0588 35.5118 21.9437 35.6539 21.886C35.7971 21.828 35.8984 21.8054 35.9248 21.7998C35.965 21.7912 35.9032 21.807 35.6556 21.8203C35.4245 21.8327 35.1079 21.8394 34.673 21.8394V27.8394ZM40.0516 24.3271C40.0516 23.5148 39.7649 22.7097 39.1902 22.0663C38.683 21.4984 38.0931 21.2143 37.7029 21.0672C36.9678 20.79 36.144 20.7122 35.5131 20.6739L35.1502 26.6629C35.397 26.6779 35.556 26.6956 35.6508 26.7103C35.7577 26.7268 35.7126 26.7291 35.5861 26.6814C35.4749 26.6394 35.0885 26.4811 34.7151 26.0631C34.2743 25.5694 34.0516 24.9382 34.0516 24.3271H40.0516ZM35.5188 20.6743L33.7623 20.5645L33.388 26.5528L35.1445 26.6626L35.5188 20.6743ZM36.574 23.4753L36.391 16.8884L30.3933 17.055L30.5763 23.6419L36.574 23.4753ZM36.3912 16.8943C36.3187 14.0878 36.2442 12.2621 36.097 11.0163C35.9384 9.67405 35.6618 8.67367 35.0101 7.69604L30.0178 11.0242C30.0197 11.0272 30.0099 11.0038 30.0167 11.0252C30.0368 11.0889 30.0861 11.277 30.1384 11.7202C30.2474 12.6426 30.3192 14.1835 30.3932 17.0491L36.3912 16.8943ZM35.0046 7.68783C33.4988 5.44515 30.8927 4.35721 28.517 4.00484C26.0669 3.64141 23.3002 3.95871 20.8701 5.11361L23.4455 10.5328C24.7114 9.93113 26.2628 9.73612 27.6367 9.9399C29.0851 10.1547 29.8091 10.7135 30.0232 11.0324L35.0046 7.68783ZM29.2285 17.694C29.2698 18.2817 28.8607 19.2981 27.5023 20.1371C26.1802 20.9535 24.7142 21.0971 23.7159 20.6803L21.4048 26.2174C24.6147 27.5572 28.1255 26.8042 30.655 25.242C33.1481 23.7023 35.4653 20.8581 35.2138 17.274L29.2285 17.694ZM23.7421 20.6914C23.6387 20.6471 23.4173 20.4676 23.3005 20.1075C23.1822 19.743 23.2998 19.6261 23.2519 19.6938L18.3557 16.2257C17.0636 18.0499 17.0349 20.2385 17.5935 21.9598C18.1537 23.6856 19.4327 25.3723 21.3786 26.2063L23.7421 20.6914ZM23.2665 19.6729C23.3756 19.5161 23.5278 19.3156 24.2432 19.1297C25.1068 18.9054 26.5165 18.7828 28.9342 18.8365L29.0675 12.838C26.545 12.782 24.4417 12.879 22.7346 13.3225C20.8792 13.8045 19.403 14.72 18.3411 16.2466L23.2665 19.6729ZM28.9656 18.8371L32.0761 18.8737L32.1467 12.8741L29.0362 12.8375L28.9656 18.8371ZM29.1183 16.078L29.2281 17.6881L35.2142 17.2799L35.1044 15.6698L29.1183 16.078Z" fill="#3C3C3C" mask="url(#path-11-inside-4_1544_2466)"/>
<mask id="path-13-inside-5_1544_2466" fill="white">
<path d="M53.6652 7.3474C51.9453 7.93291 50.3352 9.32348 50.8109 9.8358C51.1037 10.1286 51.7258 9.94558 53.1163 9.25029C54.5069 8.51841 55.5681 8.26225 57.1051 8.22566C60.7279 8.22566 62.6674 9.90899 62.6674 13.1293V14.593H58.3859C54.7997 14.593 53.8482 14.7028 52.5674 15.3615C50.3718 16.4227 49.3471 18.1427 49.5667 20.4847C49.8595 23.5586 52.0917 25.2053 55.8975 25.2053C58.2395 25.2053 59.7765 24.6564 61.4964 23.2292L62.6674 22.2046V23.522V24.8394H65.229C67.2782 24.8394 67.7906 24.7296 67.7906 24.2905C67.7906 23.8879 67.3514 23.7416 65.9609 23.7416H64.1312V17.3742C64.1312 11.4093 64.0946 10.9702 63.3261 9.8358C61.8257 7.64015 60.7279 7.09124 57.6174 7.01806C56.0805 6.98146 54.2873 7.12784 53.6652 7.3474ZM62.6674 17.7401C62.6674 19.7162 62.5942 19.8992 60.9109 21.5459C58.7518 23.7416 56.8123 24.3637 54.2142 23.7416C51.9453 23.1926 50.9573 22.0216 50.9573 19.9358C50.9573 16.9351 53.2261 15.8006 59.4837 15.7274L62.6674 15.6909V17.7401Z"/>
</mask>
<path d="M53.6652 7.3474L54.632 10.1874L54.6479 10.182L54.6637 10.1764L53.6652 7.3474ZM50.8109 9.8358L48.6125 11.8772L48.6503 11.9178L48.6896 11.9571L50.8109 9.8358ZM53.1163 9.25029L54.458 11.9336L54.4859 11.9196L54.5136 11.905L53.1163 9.25029ZM57.1051 8.22566V5.22566H57.0694L57.0337 5.22651L57.1051 8.22566ZM62.6674 14.593V17.593H65.6674V14.593H62.6674ZM52.5674 15.3615L53.8729 18.0626L53.9064 18.0464L53.9395 18.0294L52.5674 15.3615ZM49.5667 20.4847L46.5798 20.7647L46.5802 20.7691L49.5667 20.4847ZM61.4964 23.2292L63.4121 25.5379L63.4423 25.5128L63.4719 25.487L61.4964 23.2292ZM62.6674 22.2046H65.6674V15.5933L60.6919 19.9469L62.6674 22.2046ZM62.6674 24.8394H59.6674V27.8394H62.6674V24.8394ZM64.1312 23.7416H61.1312V26.7416H64.1312V23.7416ZM63.3261 9.8358L65.8099 8.15324L65.803 8.14323L63.3261 9.8358ZM57.6174 7.01806L57.546 10.0172L57.5468 10.0172L57.6174 7.01806ZM60.9109 21.5459L58.813 19.4014L58.7922 19.4218L58.7718 19.4425L60.9109 21.5459ZM54.2142 23.7416L53.5087 26.6574L53.5156 26.6591L54.2142 23.7416ZM59.4837 15.7274L59.4492 12.7276L59.4486 12.7277L59.4837 15.7274ZM62.6674 15.6909H65.6674V12.6562L62.6329 12.6911L62.6674 15.6909ZM52.6984 4.50745C51.4771 4.92324 50.3033 5.61047 49.4471 6.35443C49.0429 6.70565 48.5175 7.23332 48.1574 7.9201C47.8424 8.52081 47.1732 10.3271 48.6125 11.8772L53.0093 7.79445C53.5274 8.35239 53.7388 9.05087 53.7258 9.66899C53.7145 10.2021 53.5437 10.5681 53.4713 10.7063C53.333 10.9699 53.2285 11.0173 53.3823 10.8837C53.6422 10.6579 54.1335 10.3571 54.632 10.1874L52.6984 4.50745ZM48.6896 11.9571C50.0283 13.2958 51.7053 12.9749 52.3136 12.8153C53.0133 12.6316 53.766 12.2796 54.458 11.9336L51.7747 6.56701C51.4545 6.72713 51.214 6.83978 51.0326 6.91726C50.8425 6.9984 50.7749 7.01588 50.7902 7.01187C50.8028 7.00858 50.8627 6.99331 50.9596 6.98217C51.0559 6.97108 51.2169 6.96078 51.4227 6.9831C51.6337 7.00599 51.8955 7.0638 52.1762 7.19113C52.4623 7.32091 52.7182 7.50046 52.9322 7.71448L48.6896 11.9571ZM54.5136 11.905C55.474 11.3996 56.0782 11.251 57.1765 11.2248L57.0337 5.22651C55.0581 5.27355 53.5398 5.63727 51.7191 6.59554L54.5136 11.905ZM57.1051 11.2257C58.5039 11.2257 59.0732 11.5554 59.2654 11.7242C59.3902 11.8338 59.6674 12.1368 59.6674 13.1293H65.6674C65.6674 10.9015 64.9748 8.75267 63.2242 7.21554C61.541 5.73759 59.3291 5.22566 57.1051 5.22566V11.2257ZM59.6674 13.1293V14.593H65.6674V13.1293H59.6674ZM62.6674 11.593H58.3859V17.593H62.6674V11.593ZM58.3859 11.593C54.868 11.593 53.208 11.6586 51.1954 12.6936L53.9395 18.0294C54.2874 17.8504 54.5132 17.7682 54.9981 17.7053C55.6228 17.6243 56.568 17.593 58.3859 17.593V11.593ZM51.2619 12.6605C49.7556 13.3885 48.4431 14.4469 47.5756 15.9217C46.7008 17.4089 46.4216 19.0767 46.5798 20.7647L52.5536 20.2047C52.4923 19.5507 52.6156 19.1875 52.7472 18.9639C52.8859 18.7279 53.1836 18.3957 53.8729 18.0626L51.2619 12.6605ZM46.5802 20.7691C46.7955 23.0291 47.7805 25.0338 49.6246 26.4051C51.3851 27.7142 53.6043 28.2053 55.8975 28.2053V22.2053C54.3848 22.2053 53.5851 21.8731 53.2048 21.5903C52.9082 21.3697 52.6307 21.0142 52.5532 20.2003L46.5802 20.7691ZM55.8975 28.2053C57.3067 28.2053 58.6333 28.0398 59.931 27.5806C61.2341 27.1195 62.352 26.4176 63.4121 25.5379L59.5807 20.9206C58.9209 21.468 58.4103 21.7542 57.9295 21.9243C57.4432 22.0964 56.8303 22.2053 55.8975 22.2053V28.2053ZM63.4719 25.487L64.6429 24.4623L60.6919 19.9469L59.5209 20.9715L63.4719 25.487ZM59.6674 22.2046V23.522H65.6674V22.2046H59.6674ZM59.6674 23.522V24.8394H65.6674V23.522H59.6674ZM62.6674 27.8394H65.229V21.8394H62.6674V27.8394ZM65.229 27.8394C66.189 27.8394 67.1567 27.8237 67.9068 27.663C68.2786 27.5833 69.0226 27.3879 69.6854 26.7914C70.5174 26.0426 70.7906 25.075 70.7906 24.2905H64.7906C64.7906 24.0551 64.825 23.7113 64.9791 23.326C65.1396 22.9247 65.3862 22.5885 65.6716 22.3316C65.9399 22.0902 66.1961 21.9598 66.3538 21.8932C66.5102 21.8272 66.6218 21.8022 66.6497 21.7962C66.6906 21.7874 66.6208 21.805 66.3409 21.8193C66.0801 21.8326 65.7228 21.8394 65.229 21.8394V27.8394ZM70.7906 24.2905C70.7906 23.5925 70.5775 22.7518 69.9364 22.035C69.3678 21.3992 68.6931 21.1245 68.2762 20.9967C67.5125 20.7627 66.6381 20.7416 65.9609 20.7416V26.7416C66.2649 26.7416 66.4606 26.7499 66.5807 26.7601C66.7179 26.7717 66.6658 26.7786 66.5182 26.7334C66.3848 26.6925 65.9068 26.5299 65.464 26.0347C64.9488 25.4586 64.7906 24.7871 64.7906 24.2905H70.7906ZM65.9609 20.7416H64.1312V26.7416H65.9609V20.7416ZM67.1312 23.7416V17.3742H61.1312V23.7416H67.1312ZM67.1312 17.3742C67.1312 14.4758 67.1263 12.6741 67.0002 11.4788C66.9315 10.8276 66.8148 10.2055 66.581 9.58932C66.345 8.96717 66.0437 8.49846 65.8098 8.15325L60.8423 11.5183C60.9927 11.7403 60.9842 11.7519 60.9711 11.7176C60.9604 11.6892 60.9968 11.7624 61.0334 12.1084C61.1177 12.9075 61.1312 14.3077 61.1312 17.3742H67.1312ZM65.803 8.14323C64.9429 6.88451 63.9383 5.70007 62.4056 4.94197C60.9398 4.21692 59.3345 4.05763 57.688 4.01889L57.5468 10.0172C59.0108 10.0517 59.5097 10.2034 59.7455 10.32C59.9144 10.4036 60.2089 10.5914 60.8491 11.5284L65.803 8.14323ZM57.6888 4.01891C56.8097 3.99797 55.8706 4.02901 55.0507 4.0969C54.3431 4.15549 53.3842 4.26522 52.6668 4.51843L54.6637 10.1764C54.5571 10.214 54.5702 10.1972 54.7957 10.1617C54.984 10.132 55.2384 10.1019 55.5458 10.0764C56.1622 10.0254 56.8882 10.0015 57.546 10.0172L57.6888 4.01891ZM59.6674 17.7401C59.6674 18.2538 59.6604 18.4849 59.6456 18.6284C59.636 18.7208 59.6356 18.6422 59.6936 18.5157C59.7424 18.4093 59.7721 18.4047 59.6335 18.5638C59.4799 18.7401 59.2428 18.9809 58.813 19.4014L63.0088 23.6904C63.7289 22.9859 64.6391 22.1249 65.1472 21.0173C65.6977 19.8171 65.6674 18.5847 65.6674 17.7401H59.6674ZM58.7718 19.4425C57.8972 20.3319 57.2685 20.6944 56.7967 20.8484C56.3606 20.9906 55.8068 21.0381 54.9127 20.824L53.5156 26.6591C55.2197 27.0671 56.9347 27.1146 58.6577 26.5524C60.3449 26.0019 61.7655 24.9556 63.0499 23.6493L58.7718 19.4425ZM54.9196 20.8257C54.1271 20.634 53.9868 20.4324 54.0174 20.4682C54.0823 20.5443 53.9573 20.4998 53.9573 19.9358H47.9573C47.9573 21.4576 48.3263 23.0416 49.4524 24.3619C50.5442 25.6419 52.0323 26.3002 53.5087 26.6574L54.9196 20.8257ZM53.9573 19.9358C53.9573 19.56 54.0273 19.4892 53.9974 19.5401C53.9572 19.6088 53.9477 19.5496 54.2046 19.4225C54.8923 19.0821 56.4147 18.7635 59.5188 18.7272L59.4486 12.7277C56.2951 12.7645 53.5543 13.0497 51.5432 14.0451C50.4506 14.5858 49.4829 15.3774 48.8217 16.5051C48.1709 17.6149 47.9573 18.8112 47.9573 19.9358H53.9573ZM59.5182 18.7272L62.7019 18.6907L62.6329 12.6911L59.4492 12.7276L59.5182 18.7272ZM59.6674 15.6909V17.7401H65.6674V15.6909H59.6674Z" fill="#3C3C3C" mask="url(#path-13-inside-5_1544_2466)"/>
</svg>
